<?xml version="1.0" encoding="UTF-8" standalone="no"?>
<!-- Created with Inkscape (http://www.inkscape.org/) -->

<svg
   xmlns:dc="http://purl.org/dc/elements/1.1/"
   xmlns:cc="http://creativecommons.org/ns#"
   xmlns:rdf="http://www.w3.org/1999/02/22-rdf-syntax-ns#"
   xmlns:svg="http://www.w3.org/2000/svg"
   xmlns="http://www.w3.org/2000/svg"
   xmlns:sodipodi="http://sodipodi.sourceforge.net/DTD/sodipodi-0.dtd"
   xmlns:inkscape="http://www.inkscape.org/namespaces/inkscape"
   id="svg2"
   version="1.1"
   inkscape:version="0.91 r13725"
   xml:space="preserve"
   width="238.97501"
   height="155.02499"
   viewBox="0 0 238.97501 155.02499"
   sodipodi:docname="logoSII.svg"><metadata
     id="metadata8"><rdf:RDF><cc:Work
         rdf:about=""><dc:format>image/svg+xml</dc:format><dc:type
           rdf:resource="http://purl.org/dc/dcmitype/StillImage" /><dc:title></dc:title></cc:Work></rdf:RDF></metadata><defs
     id="defs6" /><sodipodi:namedview
     pagecolor="#ffffff"
     bordercolor="#666666"
     borderopacity="1"
     objecttolerance="10"
     gridtolerance="10"
     guidetolerance="10"
     inkscape:pageopacity="0"
     inkscape:pageshadow="2"
     inkscape:window-width="1920"
     inkscape:window-height="1054"
     id="namedview4"
     showgrid="false"
     inkscape:zoom="1.5223352"
     inkscape:cx="119.4875"
     inkscape:cy="77.512497"
     inkscape:window-x="1920"
     inkscape:window-y="0"
     inkscape:window-maximized="1"
     inkscape:current-layer="g10" /><g
     id="g10"
     inkscape:groupmode="layer"
     inkscape:label="ink_ext_XXXXXX"
     transform="matrix(1.25,0,0,-1.25,0,155.025)"><g
       id="g4186"><path
         d="m 146.15,31.6613 -0.92,-0.2129 c 3.806,10.9688 17.819,51.3914 17.723,51.584 -0.111,0.2227 -11.807,36.7586 -11.807,36.7586 0,0 -6.052,6.493 -30.167,0.343 -23.9407,-6.105 -44.42,-19.47 -44.42,-19.47 0,0 -1.8949,-1.1402 -4.8578,-3.0691 l -3.2328,2.9221 c 0,0 -6.5684,-3.2357 -13.5442,-8.3397 -4.4777,-3.2761 -7.3129,-6.5753 -8.1246,-7.5714 -0.598,-0.3661 -0.9168,-0.5707 -0.9168,-0.5707 L 30.1902,63.1379 26.6887,36.8008 36.5973,45.0742 35.4125,33.5754 c 0,0 -6.9383,-31.88829 2.5293,-33.003525 1.1598,-0.135937 2.4703,-0.254687 3.9215,-0.34375 L 41.85,0.2 c 0,0 4.3254,-0.246875 7.4387,-0.1921875 3.1133,0.0550781 6.4742,0.2480465 6.4742,0.2480465 L 55.768,0.298047 C 65.6898,0.905859 78.3965,2.73203 93.4348,6.86016 105.877,10.2762 117.734,15.2391 126.866,19.573 l 0.055,-0.1429 c 0,0 2.443,0.984 9.284,4.6551 6.777,3.6367 8.761,5.0136 10.855,6.2539 2.093,1.2402 -0.91,1.3222 -0.91,1.3222"
         style="fill:#ffffff;fill-opacity:1;fill-rule:nonzero;stroke:none"
         id="path14"
         inkscape:connector-curvature="0" /><path
         d="M 49.4898,5.92695 C 36.7605,6.29492 26.9387,10.282 22.1414,18.1488 c -8.0148,13.1453 -0.0129,33.7867 18.5516,53.736 0.6511,4.5832 2.8812,8.8039 6.0582,12.75 C 13.5203,64.6887 -5.69141,39.0078 1.50313,20.3699 6.24453,8.08516 21.5422,1.24102 42.3043,0.164844 45.0156,2.09297 47.4082,4.01289 49.4898,5.92695"
         style="fill:#1a5eaf;fill-opacity:1;fill-rule:nonzero;stroke:none"
         id="path16"
         inkscape:connector-curvature="0" /><path
         d="M 93.5215,15.1699 C 83.0445,10.9871 72.916,8.18711 63.6777,6.83281 61.2164,4.56484 58.4691,2.35586 55.4609,0.219141 67.5238,0.885938 80.834,3.19297 94.6371,7.18984 94.2191,9.67383 93.8477,12.3512 93.5215,15.1699"
         style="fill:#1a5eaf;fill-opacity:1;fill-rule:nonzero;stroke:none"
         id="path18"
         inkscape:connector-curvature="0" /><path
         d="m 127.378,33.0742 c -2.119,-1.4109 -4.284,-2.7976 -6.504,-4.1512 -4.423,-2.6972 -8.864,-5.15 -13.288,-7.3859 -0.407,-4.0961 -0.909,-7.7172 -1.483,-10.673 2.088,0.7347 4.184,1.5019 6.283,2.3129 5.497,2.1218 10.797,4.421 15.874,6.8609 -0.385,4.1664 -0.68,8.5539 -0.882,13.0363"
         style="fill:#1a5eaf;fill-opacity:1;fill-rule:nonzero;stroke:none"
         id="path20"
         inkscape:connector-curvature="0" /><path
         d="m 189.682,93.0059 c -2.04,5.2863 -6.037,9.5641 -11.58,12.8101 3.901,-16.1676 -9.7,-39.6285 -34.131,-60.2992 -0.024,-6.1113 -0.237,-12.0234 -0.601,-17.416 33.885,20.034 53.583,46.0664 46.312,64.9051"
         style="fill:#1a5eaf;fill-opacity:1;fill-rule:nonzero;stroke:none"
         id="path22"
         inkscape:connector-curvature="0" /><path
         d="m 104.432,108.297 c 8.843,2.181 17.418,3.651 25.512,4.422 l 0,0.355 9.731,5.819 0,-5.575 c 15.827,0.41 29.25,-2.129 38.427,-7.502 -0.51,2.113 -1.315,4.103 -2.438,5.944 -9.501,15.582 -38.669,16.003 -71.232,3.041 l 0,-6.504"
         style="fill:#b3d1ef;fill-opacity:1;fill-rule:nonzero;stroke:none"
         id="path24"
         inkscape:connector-curvature="0" /><path
         d="m 94.7012,110.56 c -5.8977,-2.78 -11.8496,-5.962 -17.7688,-9.572 -1.798,-1.0962 -3.5484,-2.2212 -5.2785,-3.3571 l 0.2734,-0.2344 c 2.2575,0.9601 4.5407,1.9004 6.8711,2.8005 5.3399,2.061 10.6532,3.869 15.9028,5.442 l 0,4.921"
         style="fill:#b3d1ef;fill-opacity:1;fill-rule:nonzero;stroke:none"
         id="path26"
         inkscape:connector-curvature="0" /><path
         d="M 50.2168,48.9141 C 42.2117,57.5527 39.7301,65.1133 40.693,71.8848 22.1285,51.9355 14.1266,31.2941 22.1414,18.1488 26.9387,10.282 36.7605,6.29492 49.4898,5.92695 65.3484,20.5102 63.3688,34.7207 50.2168,48.9141"
         style="fill:#82b0e2;fill-opacity:1;fill-rule:nonzero;stroke:none"
         id="path28"
         inkscape:connector-curvature="0" /><path
         d="m 178.102,105.816 c -9.177,5.373 -22.6,7.912 -38.427,7.502 l 0,-11.48 -9.731,-5.8185 0,16.6995 c -8.094,-0.771 -16.669,-2.241 -25.512,-4.422 l 0,-6.459 -9.7308,-5.8185 0,9.6195 c -5.2496,-1.573 -10.5629,-3.381 -15.9028,-5.442 -2.3304,-0.9001 -4.6136,-1.8404 -6.8711,-2.8005 l 3.1223,-2.6766 c -16,-9.125 -25.5285,-20.4699 -6.875,-39.875 15.4137,-16.0344 11.509,-33.2648 -4.4969,-48.01209 9.2383,1.3543 19.3668,4.15429 29.8438,8.33709 -2.6223,22.6731 -2.2621,54.543 1.1797,69.9629 l 9.7308,5.8184 c 4.886,-19.4571 5.103,-49.8211 3.154,-69.4141 4.424,2.2359 8.865,4.6887 13.288,7.3859 2.22,1.3536 4.385,2.7403 6.504,4.1512 -0.874,19.3703 -0.034,40.4102 2.566,52.0586 l 9.731,5.8184 c 3.151,-12.5477 4.356,-29.6289 4.296,-45.4344 24.431,20.6707 38.032,44.1316 34.131,60.2992"
         style="fill:#82b0e2;fill-opacity:1;fill-rule:nonzero;stroke:none"
         id="path30"
         inkscape:connector-curvature="0" /></g></g></svg>